# xmcd
#
# Track frame offsets:
# 150
# 12723
# 29620
# 43655
# 60160
# 75592
# 91054
# 107373
# 124085
# 141328
# 165737
# 179230
# 199413
# 212612
# 226381
# 244402
# 260135
# 274527
# 288448
# 303213
#
# Disc length: 4243 seconds
#
#
# Revision: 2
# Processed by: cddbd v1.5.1PL2 Copyright (c) Steve Scherf et al.
# Submitted via: FreeRIP 2.90 
#
DISCID=23109114
DTITLE=Varios - Latino Saga CD 1
DYEAR=2005
DGENRE=Latin
TTITLE0=Jose Feliciano - "La Bamba"
TTITLE1=Los Machucambos - A Mover La Colita
TTITLE2=Pepe Cubano - "Oye Como Va"
TTITLE3=Alma Ritano - "No soy loco"
TTITLE4=Titi Abardonado -  "Mika la"
TTITLE5=Olivia Valere -  "Cantinero de Cuba"
TTITLE6=Alicante -  "Te vas"
TTITLE7=Alma Ritano -  "Mi Sevillana"
TTITLE8=El Chato -  "Estoy Loco"
TTITLE9=Chico and The Gypsies - Bem Bem Maria (Version Live)
TTITLE10=San Diego -  "Tequila"
TTITLE11=Benny Perez y Su Orquesta - A "Salsa"
TTITLE12=Siembra Orquesta - Chavela
TTITLE13=Orquesta Barreto - Que Mire
TTITLE14=El Chato -  "La Colegiala"
TTITLE15=Ferrer -  "Oye"
TTITLE16=Chopo Metis -  "Hey Arriba"
TTITLE17=Cuban Mambo - "Tu Amigo"
TTITLE18=Paquito Murcia -  "Cabeza Negra"
TTITLE19=Los Machucambos - Quinto Centenario
EXTD=
EXTT0=
EXTT1=
EXTT2=
EXTT3=
EXTT4=
EXTT5=
EXTT6=
EXTT7=
EXTT8=
EXTT9=
EXTT10=
EXTT11=
EXTT12=
EXTT13=
EXTT14=
EXTT15=
EXTT16=
EXTT17=
EXTT18=
EXTT19=
PLAYORDER=
